<mxfile host="app.diagrams.net" modified="2023-12-01T04:14:07.017Z" agent="Mozilla/5.0 (Windows NT 10.0; Win64; x64) AppleWebKit/537.36 (KHTML, like Gecko) Chrome/119.0.0.0 Safari/537.36" etag="hLAKyYu9QkDxVTpE10wv" version="22.1.5" type="device">
  <diagram name="Página-1" id="qCwNosNTg0YJdvghF1Ut">
    <mxGraphModel dx="2694" dy="857" grid="1" gridSize="10" guides="1" tooltips="1" connect="1" arrows="1" fold="1" page="1" pageScale="1" pageWidth="827" pageHeight="1169" math="0" shadow="0">
      <root>
        <mxCell id="0" />
        <mxCell id="1" parent="0" />
        <mxCell id="k0k4XqnMtMG9pEQWN4-V-2" value="Inicio" style="ellipse;whiteSpace=wrap;html=1;aspect=fixed;labelBackgroundColor=none;fillColor=#5D7F99;strokeColor=#D0CEE2;fontColor=#1A1A1A;" parent="1" vertex="1">
          <mxGeometry x="380" y="10" width="80" height="80" as="geometry" />
        </mxCell>
        <mxCell id="k0k4XqnMtMG9pEQWN4-V-3" value="" style="endArrow=classic;html=1;rounded=0;entryX=0.5;entryY=0;entryDx=0;entryDy=0;labelBackgroundColor=none;fontColor=default;strokeColor=#736CA8;" parent="1" source="k0k4XqnMtMG9pEQWN4-V-2" target="k0k4XqnMtMG9pEQWN4-V-4" edge="1">
          <mxGeometry width="50" height="50" relative="1" as="geometry">
            <mxPoint x="370" y="120" as="sourcePoint" />
            <mxPoint x="420" y="160" as="targetPoint" />
          </mxGeometry>
        </mxCell>
        <mxCell id="k0k4XqnMtMG9pEQWN4-V-4" value="Registrar Usuario/Administrador" style="rounded=0;whiteSpace=wrap;html=1;labelBackgroundColor=none;fillColor=#5D7F99;strokeColor=#D0CEE2;fontColor=#1A1A1A;" parent="1" vertex="1">
          <mxGeometry x="360" y="160" width="120" height="60" as="geometry" />
        </mxCell>
        <mxCell id="k0k4XqnMtMG9pEQWN4-V-5" value="Iniciar Sesion" style="rounded=0;whiteSpace=wrap;html=1;labelBackgroundColor=none;fillColor=#5D7F99;strokeColor=#D0CEE2;fontColor=#1A1A1A;" parent="1" vertex="1">
          <mxGeometry x="120" y="150" width="120" height="60" as="geometry" />
        </mxCell>
        <mxCell id="k0k4XqnMtMG9pEQWN4-V-7" value="" style="endArrow=classic;html=1;rounded=0;exitX=0.5;exitY=0;exitDx=0;exitDy=0;entryX=0;entryY=0.5;entryDx=0;entryDy=0;labelBackgroundColor=none;fontColor=default;strokeColor=#736CA8;" parent="1" source="k0k4XqnMtMG9pEQWN4-V-5" target="k0k4XqnMtMG9pEQWN4-V-2" edge="1">
          <mxGeometry width="50" height="50" relative="1" as="geometry">
            <mxPoint x="260" y="150" as="sourcePoint" />
            <mxPoint x="310" y="100" as="targetPoint" />
            <Array as="points">
              <mxPoint x="180" y="50" />
            </Array>
          </mxGeometry>
        </mxCell>
        <mxCell id="k0k4XqnMtMG9pEQWN4-V-8" value="" style="endArrow=classic;html=1;rounded=0;exitX=1;exitY=0;exitDx=0;exitDy=0;entryX=0;entryY=1;entryDx=0;entryDy=0;labelBackgroundColor=none;fontColor=default;strokeColor=#736CA8;" parent="1" source="k0k4XqnMtMG9pEQWN4-V-5" target="k0k4XqnMtMG9pEQWN4-V-2" edge="1">
          <mxGeometry width="50" height="50" relative="1" as="geometry">
            <mxPoint x="230" y="190" as="sourcePoint" />
            <mxPoint x="280" y="140" as="targetPoint" />
            <Array as="points">
              <mxPoint x="240" y="80" />
            </Array>
          </mxGeometry>
        </mxCell>
        <mxCell id="k0k4XqnMtMG9pEQWN4-V-9" value="Usuario Incorrecto" style="edgeLabel;html=1;align=center;verticalAlign=middle;resizable=0;points=[];labelBackgroundColor=none;fontColor=#1A1A1A;" parent="k0k4XqnMtMG9pEQWN4-V-8" vertex="1" connectable="0">
          <mxGeometry x="0.0778" y="2" relative="1" as="geometry">
            <mxPoint as="offset" />
          </mxGeometry>
        </mxCell>
        <mxCell id="k0k4XqnMtMG9pEQWN4-V-10" value="" style="endArrow=classic;html=1;rounded=0;exitX=1;exitY=0.25;exitDx=0;exitDy=0;entryX=1;entryY=0.75;entryDx=0;entryDy=0;labelBackgroundColor=none;fontColor=default;strokeColor=#736CA8;" parent="1" edge="1">
          <mxGeometry width="50" height="50" relative="1" as="geometry">
            <mxPoint x="240" y="165" as="sourcePoint" />
            <mxPoint x="240" y="195" as="targetPoint" />
            <Array as="points">
              <mxPoint x="330" y="160" />
            </Array>
          </mxGeometry>
        </mxCell>
        <mxCell id="k0k4XqnMtMG9pEQWN4-V-11" value="Usuario Incorrecto" style="edgeLabel;html=1;align=center;verticalAlign=middle;resizable=0;points=[];labelBackgroundColor=none;fontColor=#1A1A1A;" parent="k0k4XqnMtMG9pEQWN4-V-10" vertex="1" connectable="0">
          <mxGeometry x="0.3428" relative="1" as="geometry">
            <mxPoint as="offset" />
          </mxGeometry>
        </mxCell>
        <mxCell id="k0k4XqnMtMG9pEQWN4-V-12" value="" style="endArrow=classic;html=1;rounded=0;exitX=0;exitY=0.5;exitDx=0;exitDy=0;entryX=0.5;entryY=0;entryDx=0;entryDy=0;labelBackgroundColor=none;fontColor=default;strokeColor=#736CA8;" parent="1" source="k0k4XqnMtMG9pEQWN4-V-5" target="k0k4XqnMtMG9pEQWN4-V-17" edge="1">
          <mxGeometry width="50" height="50" relative="1" as="geometry">
            <mxPoint x="140" y="200" as="sourcePoint" />
            <mxPoint x="-160" y="150" as="targetPoint" />
            <Array as="points">
              <mxPoint x="-280" y="180" />
            </Array>
          </mxGeometry>
        </mxCell>
        <mxCell id="k0k4XqnMtMG9pEQWN4-V-17" value="menu administrador" style="rounded=0;whiteSpace=wrap;html=1;labelBackgroundColor=none;fillColor=#5D7F99;strokeColor=#D0CEE2;fontColor=#1A1A1A;" parent="1" vertex="1">
          <mxGeometry x="-340" y="240" width="120" height="60" as="geometry" />
        </mxCell>
        <mxCell id="k0k4XqnMtMG9pEQWN4-V-18" value="" style="endArrow=classic;html=1;rounded=0;exitX=0.25;exitY=0;exitDx=0;exitDy=0;labelBackgroundColor=none;fontColor=default;entryX=1;entryY=1;entryDx=0;entryDy=0;strokeColor=#736CA8;" parent="1" source="k0k4XqnMtMG9pEQWN4-V-17" target="k0k4XqnMtMG9pEQWN4-V-19" edge="1">
          <mxGeometry width="50" height="50" relative="1" as="geometry">
            <mxPoint x="-350" y="300" as="sourcePoint" />
            <mxPoint x="-330" y="160" as="targetPoint" />
            <Array as="points">
              <mxPoint x="-320" y="200" />
            </Array>
          </mxGeometry>
        </mxCell>
        <mxCell id="k0k4XqnMtMG9pEQWN4-V-19" value="Crear Evento" style="rounded=0;whiteSpace=wrap;html=1;labelBackgroundColor=none;fillColor=#5D7F99;strokeColor=#D0CEE2;fontColor=#1A1A1A;" parent="1" vertex="1">
          <mxGeometry x="-480" y="100" width="120" height="60" as="geometry" />
        </mxCell>
        <mxCell id="k0k4XqnMtMG9pEQWN4-V-21" value="" style="endArrow=classic;html=1;rounded=0;exitX=1;exitY=0.75;exitDx=0;exitDy=0;entryX=0.994;entryY=0.348;entryDx=0;entryDy=0;entryPerimeter=0;labelBackgroundColor=none;strokeColor=#736CA8;fontColor=default;" parent="1" source="k0k4XqnMtMG9pEQWN4-V-19" target="k0k4XqnMtMG9pEQWN4-V-19" edge="1">
          <mxGeometry width="50" height="50" relative="1" as="geometry">
            <mxPoint x="-390" y="240" as="sourcePoint" />
            <mxPoint x="-280" y="90" as="targetPoint" />
            <Array as="points">
              <mxPoint x="-280" y="150" />
              <mxPoint x="-270" y="120" />
            </Array>
          </mxGeometry>
        </mxCell>
        <mxCell id="4ZQsZ7IrP8B2VrpJbDtk-2" value="solicita y añade Evento" style="edgeLabel;html=1;align=center;verticalAlign=middle;resizable=0;points=[];labelBackgroundColor=none;fontColor=#1A1A1A;" vertex="1" connectable="0" parent="k0k4XqnMtMG9pEQWN4-V-21">
          <mxGeometry x="0.479" y="-3" relative="1" as="geometry">
            <mxPoint x="38" as="offset" />
          </mxGeometry>
        </mxCell>
        <mxCell id="4ZQsZ7IrP8B2VrpJbDtk-3" value="" style="endArrow=classic;html=1;rounded=0;exitX=0;exitY=0;exitDx=0;exitDy=0;labelBackgroundColor=none;strokeColor=#736CA8;fontColor=default;" edge="1" parent="1" source="k0k4XqnMtMG9pEQWN4-V-17">
          <mxGeometry width="50" height="50" relative="1" as="geometry">
            <mxPoint x="-360" y="290" as="sourcePoint" />
            <mxPoint x="-430" y="210" as="targetPoint" />
          </mxGeometry>
        </mxCell>
        <mxCell id="4ZQsZ7IrP8B2VrpJbDtk-4" value="Ver Evento" style="rounded=0;whiteSpace=wrap;html=1;labelBackgroundColor=none;fillColor=#5D7F99;strokeColor=#D0CEE2;fontColor=#1A1A1A;" vertex="1" parent="1">
          <mxGeometry x="-550" y="180" width="120" height="60" as="geometry" />
        </mxCell>
        <mxCell id="4ZQsZ7IrP8B2VrpJbDtk-5" value="" style="endArrow=classic;html=1;rounded=0;exitX=0;exitY=0.75;exitDx=0;exitDy=0;entryX=0;entryY=0.25;entryDx=0;entryDy=0;labelBackgroundColor=none;strokeColor=#736CA8;fontColor=default;" edge="1" parent="1" source="4ZQsZ7IrP8B2VrpJbDtk-4" target="4ZQsZ7IrP8B2VrpJbDtk-4">
          <mxGeometry width="50" height="50" relative="1" as="geometry">
            <mxPoint x="-600" y="200" as="sourcePoint" />
            <mxPoint x="-642" y="198.98000000000002" as="targetPoint" />
            <Array as="points">
              <mxPoint x="-610" y="240" />
            </Array>
          </mxGeometry>
        </mxCell>
        <mxCell id="4ZQsZ7IrP8B2VrpJbDtk-6" value="Muestra Eventos" style="edgeLabel;html=1;align=center;verticalAlign=middle;resizable=0;points=[];labelBackgroundColor=none;fontColor=#1A1A1A;" vertex="1" connectable="0" parent="4ZQsZ7IrP8B2VrpJbDtk-5">
          <mxGeometry x="-0.4825" y="-3" relative="1" as="geometry">
            <mxPoint x="-25" y="-11" as="offset" />
          </mxGeometry>
        </mxCell>
        <mxCell id="4ZQsZ7IrP8B2VrpJbDtk-7" value="" style="endArrow=classic;html=1;rounded=0;exitX=0;exitY=0.383;exitDx=0;exitDy=0;exitPerimeter=0;labelBackgroundColor=none;strokeColor=#736CA8;fontColor=default;" edge="1" parent="1" source="k0k4XqnMtMG9pEQWN4-V-17" target="4ZQsZ7IrP8B2VrpJbDtk-8">
          <mxGeometry width="50" height="50" relative="1" as="geometry">
            <mxPoint x="-350" y="290" as="sourcePoint" />
            <mxPoint x="-420" y="280" as="targetPoint" />
          </mxGeometry>
        </mxCell>
        <mxCell id="4ZQsZ7IrP8B2VrpJbDtk-8" value="Modificar Evento" style="rounded=0;whiteSpace=wrap;html=1;labelBackgroundColor=none;fillColor=#5D7F99;strokeColor=#D0CEE2;fontColor=#1A1A1A;" vertex="1" parent="1">
          <mxGeometry x="-550" y="260" width="120" height="60" as="geometry" />
        </mxCell>
        <mxCell id="4ZQsZ7IrP8B2VrpJbDtk-9" value="" style="endArrow=classic;html=1;rounded=0;exitX=0;exitY=0.75;exitDx=0;exitDy=0;entryX=0;entryY=0.25;entryDx=0;entryDy=0;labelBackgroundColor=none;strokeColor=#736CA8;fontColor=default;" edge="1" parent="1" source="4ZQsZ7IrP8B2VrpJbDtk-8" target="4ZQsZ7IrP8B2VrpJbDtk-8">
          <mxGeometry width="50" height="50" relative="1" as="geometry">
            <mxPoint x="-520" y="300" as="sourcePoint" />
            <mxPoint x="-660" y="270" as="targetPoint" />
            <Array as="points">
              <mxPoint x="-620" y="320" />
              <mxPoint x="-620" y="290" />
            </Array>
          </mxGeometry>
        </mxCell>
        <mxCell id="4ZQsZ7IrP8B2VrpJbDtk-10" value="Modificar Evento" style="edgeLabel;html=1;align=center;verticalAlign=middle;resizable=0;points=[];labelBackgroundColor=none;fontColor=#1A1A1A;" vertex="1" connectable="0" parent="4ZQsZ7IrP8B2VrpJbDtk-9">
          <mxGeometry x="0.0346" y="5" relative="1" as="geometry">
            <mxPoint as="offset" />
          </mxGeometry>
        </mxCell>
        <mxCell id="4ZQsZ7IrP8B2VrpJbDtk-11" value="" style="endArrow=classic;html=1;rounded=0;exitX=0;exitY=0.75;exitDx=0;exitDy=0;labelBackgroundColor=none;strokeColor=#736CA8;fontColor=default;" edge="1" parent="1" source="k0k4XqnMtMG9pEQWN4-V-17" target="4ZQsZ7IrP8B2VrpJbDtk-12">
          <mxGeometry width="50" height="50" relative="1" as="geometry">
            <mxPoint x="-520" y="300" as="sourcePoint" />
            <mxPoint x="-430" y="350" as="targetPoint" />
            <Array as="points">
              <mxPoint x="-370" y="330" />
            </Array>
          </mxGeometry>
        </mxCell>
        <mxCell id="4ZQsZ7IrP8B2VrpJbDtk-12" value="Eliminar Evento" style="rounded=0;whiteSpace=wrap;html=1;labelBackgroundColor=none;fillColor=#5D7F99;strokeColor=#D0CEE2;fontColor=#1A1A1A;" vertex="1" parent="1">
          <mxGeometry x="-550" y="340" width="120" height="60" as="geometry" />
        </mxCell>
        <mxCell id="4ZQsZ7IrP8B2VrpJbDtk-13" value="" style="endArrow=classic;html=1;rounded=0;exitX=0;exitY=0.75;exitDx=0;exitDy=0;entryX=0;entryY=0.25;entryDx=0;entryDy=0;labelBackgroundColor=none;strokeColor=#736CA8;fontColor=default;" edge="1" parent="1" source="4ZQsZ7IrP8B2VrpJbDtk-12" target="4ZQsZ7IrP8B2VrpJbDtk-12">
          <mxGeometry width="50" height="50" relative="1" as="geometry">
            <mxPoint x="-520" y="300" as="sourcePoint" />
            <mxPoint x="-640" y="340" as="targetPoint" />
            <Array as="points">
              <mxPoint x="-610" y="400" />
              <mxPoint x="-630" y="370" />
            </Array>
          </mxGeometry>
        </mxCell>
        <mxCell id="4ZQsZ7IrP8B2VrpJbDtk-14" value="Eliminar Evento" style="edgeLabel;html=1;align=center;verticalAlign=middle;resizable=0;points=[];labelBackgroundColor=none;fontColor=#1A1A1A;" vertex="1" connectable="0" parent="4ZQsZ7IrP8B2VrpJbDtk-13">
          <mxGeometry x="-0.0533" relative="1" as="geometry">
            <mxPoint as="offset" />
          </mxGeometry>
        </mxCell>
        <mxCell id="4ZQsZ7IrP8B2VrpJbDtk-15" value="" style="endArrow=classic;html=1;rounded=0;exitX=0.25;exitY=1;exitDx=0;exitDy=0;labelBackgroundColor=none;strokeColor=#736CA8;fontColor=default;" edge="1" parent="1" source="k0k4XqnMtMG9pEQWN4-V-17" target="4ZQsZ7IrP8B2VrpJbDtk-16">
          <mxGeometry width="50" height="50" relative="1" as="geometry">
            <mxPoint x="-360" y="300" as="sourcePoint" />
            <mxPoint x="-320" y="360" as="targetPoint" />
          </mxGeometry>
        </mxCell>
        <mxCell id="4ZQsZ7IrP8B2VrpJbDtk-16" value="Guardar Eventos en Archivo" style="rounded=0;whiteSpace=wrap;html=1;labelBackgroundColor=none;fillColor=#5D7F99;strokeColor=#D0CEE2;fontColor=#1A1A1A;" vertex="1" parent="1">
          <mxGeometry x="-413" y="360" width="120" height="60" as="geometry" />
        </mxCell>
        <mxCell id="4ZQsZ7IrP8B2VrpJbDtk-18" value="" style="endArrow=classic;html=1;rounded=0;exitX=0.158;exitY=1.05;exitDx=0;exitDy=0;exitPerimeter=0;entryX=0.5;entryY=1;entryDx=0;entryDy=0;labelBackgroundColor=none;strokeColor=#736CA8;fontColor=default;" edge="1" parent="1" source="4ZQsZ7IrP8B2VrpJbDtk-16" target="4ZQsZ7IrP8B2VrpJbDtk-16">
          <mxGeometry width="50" height="50" relative="1" as="geometry">
            <mxPoint x="-360" y="300" as="sourcePoint" />
            <mxPoint x="-330" y="510" as="targetPoint" />
            <Array as="points">
              <mxPoint x="-410" y="470" />
              <mxPoint x="-353" y="480" />
            </Array>
          </mxGeometry>
        </mxCell>
        <mxCell id="4ZQsZ7IrP8B2VrpJbDtk-19" value="Guardr en Archivo" style="edgeLabel;html=1;align=center;verticalAlign=middle;resizable=0;points=[];labelBackgroundColor=none;fontColor=#1A1A1A;" vertex="1" connectable="0" parent="4ZQsZ7IrP8B2VrpJbDtk-18">
          <mxGeometry x="-0.0933" y="1" relative="1" as="geometry">
            <mxPoint x="14" y="-14" as="offset" />
          </mxGeometry>
        </mxCell>
        <mxCell id="4ZQsZ7IrP8B2VrpJbDtk-20" value="" style="endArrow=classic;html=1;rounded=0;exitX=0.5;exitY=1;exitDx=0;exitDy=0;labelBackgroundColor=none;strokeColor=#736CA8;fontColor=default;" edge="1" parent="1" source="k0k4XqnMtMG9pEQWN4-V-17">
          <mxGeometry width="50" height="50" relative="1" as="geometry">
            <mxPoint x="-360" y="440" as="sourcePoint" />
            <mxPoint x="-280" y="480" as="targetPoint" />
          </mxGeometry>
        </mxCell>
        <mxCell id="4ZQsZ7IrP8B2VrpJbDtk-21" value="Mostrar Inscritos" style="rounded=0;whiteSpace=wrap;html=1;labelBackgroundColor=none;fillColor=#5D7F99;strokeColor=#D0CEE2;fontColor=#1A1A1A;" vertex="1" parent="1">
          <mxGeometry x="-340" y="480" width="120" height="60" as="geometry" />
        </mxCell>
        <mxCell id="4ZQsZ7IrP8B2VrpJbDtk-22" value="" style="endArrow=classic;html=1;rounded=0;exitX=0.25;exitY=1;exitDx=0;exitDy=0;entryX=0.667;entryY=0.967;entryDx=0;entryDy=0;entryPerimeter=0;labelBackgroundColor=none;strokeColor=#736CA8;fontColor=default;" edge="1" parent="1" source="4ZQsZ7IrP8B2VrpJbDtk-21" target="4ZQsZ7IrP8B2VrpJbDtk-21">
          <mxGeometry width="50" height="50" relative="1" as="geometry">
            <mxPoint x="-200" y="440" as="sourcePoint" />
            <mxPoint x="-240" y="580" as="targetPoint" />
            <Array as="points">
              <mxPoint x="-310" y="580" />
              <mxPoint x="-270" y="590" />
            </Array>
          </mxGeometry>
        </mxCell>
        <mxCell id="4ZQsZ7IrP8B2VrpJbDtk-23" value="Muestra&amp;nbsp; inscritos" style="edgeLabel;html=1;align=center;verticalAlign=middle;resizable=0;points=[];labelBackgroundColor=none;fontColor=#1A1A1A;" vertex="1" connectable="0" parent="4ZQsZ7IrP8B2VrpJbDtk-22">
          <mxGeometry x="-0.2302" y="-1" relative="1" as="geometry">
            <mxPoint x="6" y="-14" as="offset" />
          </mxGeometry>
        </mxCell>
        <mxCell id="4ZQsZ7IrP8B2VrpJbDtk-24" value="" style="endArrow=classic;html=1;rounded=0;exitX=0.617;exitY=0.983;exitDx=0;exitDy=0;exitPerimeter=0;labelBackgroundColor=none;strokeColor=#736CA8;fontColor=default;" edge="1" parent="1" source="k0k4XqnMtMG9pEQWN4-V-17" target="4ZQsZ7IrP8B2VrpJbDtk-25">
          <mxGeometry width="50" height="50" relative="1" as="geometry">
            <mxPoint x="-200" y="440" as="sourcePoint" />
            <mxPoint x="-250" y="380" as="targetPoint" />
          </mxGeometry>
        </mxCell>
        <mxCell id="4ZQsZ7IrP8B2VrpJbDtk-25" value="Eliminar participantes" style="rounded=0;whiteSpace=wrap;html=1;labelBackgroundColor=none;fillColor=#5D7F99;strokeColor=#D0CEE2;fontColor=#1A1A1A;" vertex="1" parent="1">
          <mxGeometry x="-260" y="400" width="120" height="60" as="geometry" />
        </mxCell>
        <mxCell id="4ZQsZ7IrP8B2VrpJbDtk-26" value="" style="endArrow=classic;html=1;rounded=0;exitX=0.5;exitY=1;exitDx=0;exitDy=0;entryX=0.75;entryY=1;entryDx=0;entryDy=0;labelBackgroundColor=none;strokeColor=#736CA8;fontColor=default;" edge="1" parent="1" source="4ZQsZ7IrP8B2VrpJbDtk-25" target="4ZQsZ7IrP8B2VrpJbDtk-25">
          <mxGeometry width="50" height="50" relative="1" as="geometry">
            <mxPoint x="-200" y="440" as="sourcePoint" />
            <mxPoint x="-120" y="510" as="targetPoint" />
            <Array as="points">
              <mxPoint x="-200" y="520" />
              <mxPoint x="-160" y="520" />
            </Array>
          </mxGeometry>
        </mxCell>
        <mxCell id="4ZQsZ7IrP8B2VrpJbDtk-27" value="Elimina participantes" style="edgeLabel;html=1;align=center;verticalAlign=middle;resizable=0;points=[];labelBackgroundColor=none;fontColor=#1A1A1A;" vertex="1" connectable="0" parent="4ZQsZ7IrP8B2VrpJbDtk-26">
          <mxGeometry x="-0.0549" y="-1" relative="1" as="geometry">
            <mxPoint x="24" y="-21" as="offset" />
          </mxGeometry>
        </mxCell>
        <mxCell id="4ZQsZ7IrP8B2VrpJbDtk-28" value="" style="endArrow=classic;html=1;rounded=0;exitX=1;exitY=1;exitDx=0;exitDy=0;labelBackgroundColor=none;strokeColor=#736CA8;fontColor=default;" edge="1" parent="1" source="k0k4XqnMtMG9pEQWN4-V-17" target="4ZQsZ7IrP8B2VrpJbDtk-29">
          <mxGeometry width="50" height="50" relative="1" as="geometry">
            <mxPoint x="-80" y="370" as="sourcePoint" />
            <mxPoint x="-30" y="320" as="targetPoint" />
          </mxGeometry>
        </mxCell>
        <mxCell id="4ZQsZ7IrP8B2VrpJbDtk-29" value="Revisa Solicitudes" style="rounded=0;whiteSpace=wrap;html=1;labelBackgroundColor=none;fillColor=#5D7F99;strokeColor=#D0CEE2;fontColor=#1A1A1A;" vertex="1" parent="1">
          <mxGeometry x="-130" y="340" width="120" height="60" as="geometry" />
        </mxCell>
        <mxCell id="4ZQsZ7IrP8B2VrpJbDtk-30" value="" style="endArrow=classic;html=1;rounded=0;exitX=1;exitY=0.5;exitDx=0;exitDy=0;labelBackgroundColor=none;strokeColor=#736CA8;fontColor=default;" edge="1" parent="1" source="k0k4XqnMtMG9pEQWN4-V-17" target="4ZQsZ7IrP8B2VrpJbDtk-31">
          <mxGeometry width="50" height="50" relative="1" as="geometry">
            <mxPoint x="-80" y="370" as="sourcePoint" />
            <mxPoint x="-30" y="320" as="targetPoint" />
          </mxGeometry>
        </mxCell>
        <mxCell id="4ZQsZ7IrP8B2VrpJbDtk-31" value="Buscar Eventos" style="rounded=0;whiteSpace=wrap;html=1;labelBackgroundColor=none;fillColor=#5D7F99;strokeColor=#D0CEE2;fontColor=#1A1A1A;" vertex="1" parent="1">
          <mxGeometry x="-140" y="220" width="120" height="60" as="geometry" />
        </mxCell>
        <mxCell id="4ZQsZ7IrP8B2VrpJbDtk-33" value="" style="endArrow=classic;html=1;rounded=0;exitX=1;exitY=1;exitDx=0;exitDy=0;entryX=1;entryY=0.25;entryDx=0;entryDy=0;labelBackgroundColor=none;strokeColor=#736CA8;fontColor=default;" edge="1" parent="1" source="4ZQsZ7IrP8B2VrpJbDtk-29" target="4ZQsZ7IrP8B2VrpJbDtk-29">
          <mxGeometry width="50" height="50" relative="1" as="geometry">
            <mxPoint x="-80" y="370" as="sourcePoint" />
            <mxPoint x="80" y="340" as="targetPoint" />
            <Array as="points">
              <mxPoint x="50" y="400" />
              <mxPoint x="50" y="370" />
            </Array>
          </mxGeometry>
        </mxCell>
        <mxCell id="4ZQsZ7IrP8B2VrpJbDtk-34" value="Revisa solicitudes" style="edgeLabel;html=1;align=center;verticalAlign=middle;resizable=0;points=[];labelBackgroundColor=none;fontColor=#1A1A1A;" vertex="1" connectable="0" parent="4ZQsZ7IrP8B2VrpJbDtk-33">
          <mxGeometry x="0.3707" y="1" relative="1" as="geometry">
            <mxPoint x="14" y="12" as="offset" />
          </mxGeometry>
        </mxCell>
        <mxCell id="4ZQsZ7IrP8B2VrpJbDtk-35" value="" style="endArrow=classic;html=1;rounded=0;exitX=1;exitY=1;exitDx=0;exitDy=0;entryX=1;entryY=0.383;entryDx=0;entryDy=0;entryPerimeter=0;labelBackgroundColor=none;strokeColor=#736CA8;fontColor=default;" edge="1" parent="1" source="4ZQsZ7IrP8B2VrpJbDtk-31" target="4ZQsZ7IrP8B2VrpJbDtk-31">
          <mxGeometry width="50" height="50" relative="1" as="geometry">
            <mxPoint x="110" y="340" as="sourcePoint" />
            <mxPoint x="40" y="220" as="targetPoint" />
            <Array as="points">
              <mxPoint x="40" y="280" />
              <mxPoint x="50" y="240" />
            </Array>
          </mxGeometry>
        </mxCell>
        <mxCell id="4ZQsZ7IrP8B2VrpJbDtk-36" value="Busca Eventos" style="edgeLabel;html=1;align=center;verticalAlign=middle;resizable=0;points=[];labelBackgroundColor=none;fontColor=#1A1A1A;" vertex="1" connectable="0" parent="4ZQsZ7IrP8B2VrpJbDtk-35">
          <mxGeometry x="-0.0757" y="2" relative="1" as="geometry">
            <mxPoint as="offset" />
          </mxGeometry>
        </mxCell>
        <mxCell id="4ZQsZ7IrP8B2VrpJbDtk-37" value="" style="endArrow=classic;html=1;rounded=0;exitX=1;exitY=0;exitDx=0;exitDy=0;entryX=1;entryY=0.75;entryDx=0;entryDy=0;labelBackgroundColor=none;strokeColor=#736CA8;fontColor=default;" edge="1" parent="1" source="k0k4XqnMtMG9pEQWN4-V-4" target="k0k4XqnMtMG9pEQWN4-V-4">
          <mxGeometry width="50" height="50" relative="1" as="geometry">
            <mxPoint x="630" y="250" as="sourcePoint" />
            <mxPoint x="530" y="240" as="targetPoint" />
            <Array as="points">
              <mxPoint x="530" y="160" />
              <mxPoint x="530" y="205" />
            </Array>
          </mxGeometry>
        </mxCell>
        <mxCell id="4ZQsZ7IrP8B2VrpJbDtk-38" value="Registra y verifica" style="edgeLabel;html=1;align=center;verticalAlign=middle;resizable=0;points=[];labelBackgroundColor=none;fontColor=#1A1A1A;" vertex="1" connectable="0" parent="4ZQsZ7IrP8B2VrpJbDtk-37">
          <mxGeometry x="-0.0191" y="-2" relative="1" as="geometry">
            <mxPoint y="1" as="offset" />
          </mxGeometry>
        </mxCell>
        <mxCell id="4ZQsZ7IrP8B2VrpJbDtk-39" value="" style="endArrow=classic;html=1;rounded=0;exitX=1;exitY=0.5;exitDx=0;exitDy=0;labelBackgroundColor=none;strokeColor=#736CA8;fontColor=default;" edge="1" parent="1" source="k0k4XqnMtMG9pEQWN4-V-2" target="4ZQsZ7IrP8B2VrpJbDtk-40">
          <mxGeometry width="50" height="50" relative="1" as="geometry">
            <mxPoint x="640" y="250" as="sourcePoint" />
            <mxPoint x="690" y="200" as="targetPoint" />
          </mxGeometry>
        </mxCell>
        <mxCell id="4ZQsZ7IrP8B2VrpJbDtk-40" value="Salir" style="ellipse;whiteSpace=wrap;html=1;aspect=fixed;labelBackgroundColor=none;fillColor=#5D7F99;strokeColor=#D0CEE2;fontColor=#1A1A1A;" vertex="1" parent="1">
          <mxGeometry x="560" y="30" width="60" height="60" as="geometry" />
        </mxCell>
        <mxCell id="4ZQsZ7IrP8B2VrpJbDtk-41" value="" style="endArrow=classic;html=1;rounded=0;exitX=0.5;exitY=1;exitDx=0;exitDy=0;entryX=0.5;entryY=0;entryDx=0;entryDy=0;labelBackgroundColor=none;strokeColor=#736CA8;fontColor=default;" edge="1" parent="1" source="k0k4XqnMtMG9pEQWN4-V-5" target="4ZQsZ7IrP8B2VrpJbDtk-43">
          <mxGeometry width="50" height="50" relative="1" as="geometry">
            <mxPoint x="300" y="190" as="sourcePoint" />
            <mxPoint x="830" y="260" as="targetPoint" />
            <Array as="points">
              <mxPoint x="180" y="260" />
              <mxPoint x="710" y="260" />
            </Array>
          </mxGeometry>
        </mxCell>
        <mxCell id="4ZQsZ7IrP8B2VrpJbDtk-43" value="Menu Administrador" style="rounded=0;whiteSpace=wrap;html=1;labelBackgroundColor=none;fillColor=#5D7F99;strokeColor=#D0CEE2;fontColor=#1A1A1A;" vertex="1" parent="1">
          <mxGeometry x="650" y="340" width="120" height="60" as="geometry" />
        </mxCell>
        <mxCell id="4ZQsZ7IrP8B2VrpJbDtk-44" value="" style="endArrow=classic;html=1;rounded=0;exitX=0;exitY=0;exitDx=0;exitDy=0;labelBackgroundColor=none;strokeColor=#736CA8;fontColor=default;" edge="1" parent="1" source="4ZQsZ7IrP8B2VrpJbDtk-43" target="4ZQsZ7IrP8B2VrpJbDtk-45">
          <mxGeometry width="50" height="50" relative="1" as="geometry">
            <mxPoint x="600" y="390" as="sourcePoint" />
            <mxPoint x="540" y="340" as="targetPoint" />
          </mxGeometry>
        </mxCell>
        <mxCell id="4ZQsZ7IrP8B2VrpJbDtk-45" value="Ver Eventos Inscritos" style="rounded=0;whiteSpace=wrap;html=1;labelBackgroundColor=none;fillColor=#5D7F99;strokeColor=#D0CEE2;fontColor=#1A1A1A;" vertex="1" parent="1">
          <mxGeometry x="390" y="320" width="120" height="60" as="geometry" />
        </mxCell>
        <mxCell id="4ZQsZ7IrP8B2VrpJbDtk-46" value="" style="endArrow=classic;html=1;rounded=0;exitX=0.25;exitY=0;exitDx=0;exitDy=0;entryX=0.75;entryY=0;entryDx=0;entryDy=0;labelBackgroundColor=none;strokeColor=#736CA8;fontColor=default;" edge="1" parent="1" source="4ZQsZ7IrP8B2VrpJbDtk-45" target="4ZQsZ7IrP8B2VrpJbDtk-45">
          <mxGeometry width="50" height="50" relative="1" as="geometry">
            <mxPoint x="540" y="390" as="sourcePoint" />
            <mxPoint x="590" y="340" as="targetPoint" />
            <Array as="points">
              <mxPoint x="420" y="270" />
              <mxPoint x="480" y="270" />
            </Array>
          </mxGeometry>
        </mxCell>
        <mxCell id="4ZQsZ7IrP8B2VrpJbDtk-47" value="Muestra Eventos Isncritos" style="edgeLabel;html=1;align=center;verticalAlign=middle;resizable=0;points=[];labelBackgroundColor=none;fontColor=#1A1A1A;" vertex="1" connectable="0" parent="4ZQsZ7IrP8B2VrpJbDtk-46">
          <mxGeometry x="-0.6349" y="1" relative="1" as="geometry">
            <mxPoint as="offset" />
          </mxGeometry>
        </mxCell>
        <mxCell id="4ZQsZ7IrP8B2VrpJbDtk-48" value="" style="endArrow=classic;html=1;rounded=0;exitX=0;exitY=0.5;exitDx=0;exitDy=0;labelBackgroundColor=none;strokeColor=#736CA8;fontColor=default;" edge="1" parent="1" source="4ZQsZ7IrP8B2VrpJbDtk-43" target="4ZQsZ7IrP8B2VrpJbDtk-49">
          <mxGeometry width="50" height="50" relative="1" as="geometry">
            <mxPoint x="580" y="460" as="sourcePoint" />
            <mxPoint x="530" y="450" as="targetPoint" />
          </mxGeometry>
        </mxCell>
        <mxCell id="4ZQsZ7IrP8B2VrpJbDtk-49" value="Inscribirse en Evento" style="rounded=0;whiteSpace=wrap;html=1;labelBackgroundColor=none;fillColor=#5D7F99;strokeColor=#D0CEE2;fontColor=#1A1A1A;" vertex="1" parent="1">
          <mxGeometry x="390" y="440" width="120" height="60" as="geometry" />
        </mxCell>
        <mxCell id="4ZQsZ7IrP8B2VrpJbDtk-50" value="" style="endArrow=classic;html=1;rounded=0;exitX=0.5;exitY=1;exitDx=0;exitDy=0;labelBackgroundColor=none;strokeColor=#736CA8;fontColor=default;" edge="1" parent="1" source="4ZQsZ7IrP8B2VrpJbDtk-43" target="4ZQsZ7IrP8B2VrpJbDtk-51">
          <mxGeometry width="50" height="50" relative="1" as="geometry">
            <mxPoint x="730" y="460" as="sourcePoint" />
            <mxPoint x="660" y="490" as="targetPoint" />
          </mxGeometry>
        </mxCell>
        <mxCell id="4ZQsZ7IrP8B2VrpJbDtk-51" value="Enviar Solicitud de Evento" style="rounded=0;whiteSpace=wrap;html=1;labelBackgroundColor=none;fillColor=#5D7F99;strokeColor=#D0CEE2;fontColor=#1A1A1A;" vertex="1" parent="1">
          <mxGeometry x="650" y="480" width="120" height="60" as="geometry" />
        </mxCell>
        <mxCell id="4ZQsZ7IrP8B2VrpJbDtk-52" value="" style="endArrow=classic;html=1;rounded=0;exitX=1;exitY=0.5;exitDx=0;exitDy=0;labelBackgroundColor=none;strokeColor=#736CA8;fontColor=default;" edge="1" parent="1" source="4ZQsZ7IrP8B2VrpJbDtk-43" target="4ZQsZ7IrP8B2VrpJbDtk-53">
          <mxGeometry width="50" height="50" relative="1" as="geometry">
            <mxPoint x="730" y="460" as="sourcePoint" />
            <mxPoint x="860" y="380" as="targetPoint" />
          </mxGeometry>
        </mxCell>
        <mxCell id="4ZQsZ7IrP8B2VrpJbDtk-53" value="Ver Solicitudes" style="rounded=0;whiteSpace=wrap;html=1;labelBackgroundColor=none;fillColor=#5D7F99;strokeColor=#D0CEE2;fontColor=#1A1A1A;" vertex="1" parent="1">
          <mxGeometry x="910" y="380" width="120" height="60" as="geometry" />
        </mxCell>
        <mxCell id="4ZQsZ7IrP8B2VrpJbDtk-54" value="" style="endArrow=classic;html=1;rounded=0;exitX=0.185;exitY=1.037;exitDx=0;exitDy=0;entryX=0.75;entryY=1;entryDx=0;entryDy=0;exitPerimeter=0;labelBackgroundColor=none;strokeColor=#736CA8;fontColor=default;" edge="1" parent="1" source="4ZQsZ7IrP8B2VrpJbDtk-49" target="4ZQsZ7IrP8B2VrpJbDtk-49">
          <mxGeometry width="50" height="50" relative="1" as="geometry">
            <mxPoint x="600" y="490" as="sourcePoint" />
            <mxPoint x="650" y="440" as="targetPoint" />
            <Array as="points">
              <mxPoint x="410" y="560" />
              <mxPoint x="480" y="560" />
            </Array>
          </mxGeometry>
        </mxCell>
        <mxCell id="4ZQsZ7IrP8B2VrpJbDtk-55" value="Inscribe en Evento" style="edgeLabel;html=1;align=center;verticalAlign=middle;resizable=0;points=[];labelBackgroundColor=none;fontColor=#1A1A1A;" vertex="1" connectable="0" parent="4ZQsZ7IrP8B2VrpJbDtk-54">
          <mxGeometry x="-0.5621" relative="1" as="geometry">
            <mxPoint as="offset" />
          </mxGeometry>
        </mxCell>
        <mxCell id="4ZQsZ7IrP8B2VrpJbDtk-56" value="" style="endArrow=classic;html=1;rounded=0;exitX=0.25;exitY=1;exitDx=0;exitDy=0;entryX=0.75;entryY=1;entryDx=0;entryDy=0;labelBackgroundColor=none;strokeColor=#736CA8;fontColor=default;" edge="1" parent="1" source="4ZQsZ7IrP8B2VrpJbDtk-51" target="4ZQsZ7IrP8B2VrpJbDtk-51">
          <mxGeometry width="50" height="50" relative="1" as="geometry">
            <mxPoint x="800" y="490" as="sourcePoint" />
            <mxPoint x="850" y="440" as="targetPoint" />
            <Array as="points">
              <mxPoint x="680" y="600" />
              <mxPoint x="740" y="600" />
            </Array>
          </mxGeometry>
        </mxCell>
        <mxCell id="4ZQsZ7IrP8B2VrpJbDtk-57" value="Envia solicitud" style="edgeLabel;html=1;align=center;verticalAlign=middle;resizable=0;points=[];labelBackgroundColor=none;fontColor=#1A1A1A;" vertex="1" connectable="0" parent="4ZQsZ7IrP8B2VrpJbDtk-56">
          <mxGeometry x="-0.5185" y="4" relative="1" as="geometry">
            <mxPoint as="offset" />
          </mxGeometry>
        </mxCell>
        <mxCell id="4ZQsZ7IrP8B2VrpJbDtk-60" value="" style="endArrow=classic;html=1;rounded=0;entryX=0.75;entryY=1;entryDx=0;entryDy=0;labelBackgroundColor=none;strokeColor=#736CA8;fontColor=default;" edge="1" parent="1" target="4ZQsZ7IrP8B2VrpJbDtk-53">
          <mxGeometry width="50" height="50" relative="1" as="geometry">
            <mxPoint x="930" y="440" as="sourcePoint" />
            <mxPoint x="1050" y="490" as="targetPoint" />
            <Array as="points">
              <mxPoint x="930" y="500" />
              <mxPoint x="1000" y="500" />
            </Array>
          </mxGeometry>
        </mxCell>
        <mxCell id="4ZQsZ7IrP8B2VrpJbDtk-61" value="Muestra Solicitudes" style="edgeLabel;html=1;align=center;verticalAlign=middle;resizable=0;points=[];labelBackgroundColor=none;fontColor=#1A1A1A;" vertex="1" connectable="0" parent="4ZQsZ7IrP8B2VrpJbDtk-60">
          <mxGeometry x="-0.5906" y="-3" relative="1" as="geometry">
            <mxPoint as="offset" />
          </mxGeometry>
        </mxCell>
      </root>
    </mxGraphModel>
  </diagram>
</mxfile>
